<mxfile host="app.diagrams.net" modified="2021-07-28T16:47:42.146Z" agent="5.0 (Windows NT 10.0; Win64; x64) AppleWebKit/537.36 (KHTML, like Gecko) Chrome/91.0.4472.124 Safari/537.36" etag="qzl_dBb288PhbajLZdZM" version="14.9.2" type="github">
  <diagram id="kc3jygcTK1WTkbHS7ZAO" name="Page-1">
    <mxGraphModel dx="1182" dy="675" grid="1" gridSize="10" guides="1" tooltips="1" connect="1" arrows="1" fold="1" page="1" pageScale="1" pageWidth="827" pageHeight="1169" math="0" shadow="0">
      <root>
        <mxCell id="0" />
        <mxCell id="1" parent="0" />
        <mxCell id="ahAZn8BaUVNXaEBWHNah-1" value="Proces" style="rounded=0;whiteSpace=wrap;html=1;strokeColor=#d6b656;fillColor=#FF0080;fontColor=#FFFFFF;" vertex="1" parent="1">
          <mxGeometry x="80" y="360" width="120" height="60" as="geometry" />
        </mxCell>
        <mxCell id="ahAZn8BaUVNXaEBWHNah-2" value="Data" style="shape=parallelogram;perimeter=parallelogramPerimeter;whiteSpace=wrap;html=1;fixedSize=1;strokeColor=#82b366;fillColor=#CCCC00;" vertex="1" parent="1">
          <mxGeometry x="230" y="360" width="120" height="60" as="geometry" />
        </mxCell>
        <mxCell id="ahAZn8BaUVNXaEBWHNah-3" value="Rozhodování" style="rhombus;whiteSpace=wrap;html=1;fillColor=#f8cecc;strokeColor=#b85450;" vertex="1" parent="1">
          <mxGeometry x="359" y="340" width="110" height="100" as="geometry" />
        </mxCell>
        <mxCell id="ahAZn8BaUVNXaEBWHNah-4" value="Dokument" style="shape=document;whiteSpace=wrap;html=1;boundedLbl=1;fillColor=#1ba1e2;strokeColor=#006EAF;fontColor=#ffffff;" vertex="1" parent="1">
          <mxGeometry x="80" y="450" width="120" height="80" as="geometry" />
        </mxCell>
        <mxCell id="ahAZn8BaUVNXaEBWHNah-5" value="Start" style="strokeWidth=2;html=1;shape=mxgraph.flowchart.start_2;whiteSpace=wrap;strokeColor=#4D4D4D;fillColor=#545454;fontColor=#FFFFFF;" vertex="1" parent="1">
          <mxGeometry x="230" y="450" width="60" height="60" as="geometry" />
        </mxCell>
        <mxCell id="ahAZn8BaUVNXaEBWHNah-6" value="&lt;font color=&quot;#ffffff&quot;&gt;End&lt;/font&gt;" style="ellipse;shape=doubleEllipse;html=1;dashed=0;whitespace=wrap;aspect=fixed;strokeColor=#4D4D4D;fillColor=#999999;strokeWidth=3;" vertex="1" parent="1">
          <mxGeometry x="320" y="450" width="60" height="60" as="geometry" />
        </mxCell>
        <mxCell id="ahAZn8BaUVNXaEBWHNah-7" value="Direct data&amp;nbsp; &amp;nbsp;&amp;nbsp;" style="strokeWidth=2;html=1;shape=mxgraph.flowchart.direct_data;whiteSpace=wrap;fillColor=#d80073;strokeColor=#A50040;fontColor=#ffffff;" vertex="1" parent="1">
          <mxGeometry x="430" y="450" width="100" height="60" as="geometry" />
        </mxCell>
        <mxCell id="ahAZn8BaUVNXaEBWHNah-8" value="Uložená data&amp;nbsp;&amp;nbsp;" style="strokeWidth=2;html=1;shape=mxgraph.flowchart.stored_data;whiteSpace=wrap;fillColor=#60a917;strokeColor=#2D7600;fontColor=#ffffff;" vertex="1" parent="1">
          <mxGeometry x="80" y="555" width="100" height="60" as="geometry" />
        </mxCell>
        <mxCell id="ahAZn8BaUVNXaEBWHNah-9" value="Ruční vstup" style="html=1;strokeWidth=2;shape=manualInput;whiteSpace=wrap;rounded=1;size=26;arcSize=11;fillColor=#6a00ff;strokeColor=#3700CC;fontColor=#ffffff;" vertex="1" parent="1">
          <mxGeometry x="210" y="555" width="100" height="60" as="geometry" />
        </mxCell>
        <mxCell id="ahAZn8BaUVNXaEBWHNah-10" value="Interní úložiště" style="shape=internalStorage;whiteSpace=wrap;html=1;dx=15;dy=15;rounded=1;arcSize=8;strokeWidth=2;fillColor=#1ba1e2;strokeColor=#006EAF;fontColor=#ffffff;" vertex="1" parent="1">
          <mxGeometry x="350" y="550" width="70" height="70" as="geometry" />
        </mxCell>
        <mxCell id="ahAZn8BaUVNXaEBWHNah-11" value="" style="verticalLabelPosition=bottom;verticalAlign=top;html=1;shape=process;whiteSpace=wrap;rounded=1;size=0.14;arcSize=6;strokeWidth=3;fillColor=#e1d5e7;strokeColor=#9673a6;" vertex="1" parent="1">
          <mxGeometry x="440" y="550" width="130" height="60" as="geometry" />
        </mxCell>
        <mxCell id="ahAZn8BaUVNXaEBWHNah-13" value="Předdefinovaný proces" style="text;html=1;strokeColor=none;fillColor=none;align=center;verticalAlign=middle;whiteSpace=wrap;rounded=0;" vertex="1" parent="1">
          <mxGeometry x="485" y="570" width="40" height="20" as="geometry" />
        </mxCell>
        <mxCell id="ahAZn8BaUVNXaEBWHNah-14" value="Úložiště se sekvenčním vstupem" style="strokeWidth=2;html=1;shape=mxgraph.flowchart.sequential_data;whiteSpace=wrap;fillColor=#008a00;strokeColor=#005700;fontColor=#ffffff;" vertex="1" parent="1">
          <mxGeometry x="80" y="640" width="100" height="100" as="geometry" />
        </mxCell>
        <mxCell id="ahAZn8BaUVNXaEBWHNah-15" value="Více dokumentů&amp;nbsp;&amp;nbsp;" style="strokeWidth=2;html=1;shape=mxgraph.flowchart.multi-document;whiteSpace=wrap;fillColor=#0050ef;strokeColor=#001DBC;fontColor=#ffffff;" vertex="1" parent="1">
          <mxGeometry x="216" y="660" width="88" height="60" as="geometry" />
        </mxCell>
      </root>
    </mxGraphModel>
  </diagram>
</mxfile>
